<mxfile host="Electron" modified="2024-03-25T09:23:23.840Z" agent="Mozilla/5.0 (Macintosh; Intel Mac OS X 10_15_7) AppleWebKit/537.36 (KHTML, like Gecko) draw.io/24.1.0 Chrome/120.0.6099.109 Electron/28.1.0 Safari/537.36" version="24.1.0" etag="rT5y4c7hPo5bTVPv3vYN" type="device">
  <diagram id="hi8sfMoy5ZoFu1KlQGUM" name="第 1 页">
    <mxGraphModel dx="975" dy="743" grid="1" gridSize="10" guides="1" tooltips="1" connect="1" arrows="1" fold="1" page="1" pageScale="1" pageWidth="827" pageHeight="1169" math="0" shadow="0">
      <root>
        <mxCell id="0" />
        <mxCell id="1" parent="0" />
        <mxCell id="qFRLE7N9h79QPN77nhn2-9" style="edgeStyle=orthogonalEdgeStyle;rounded=0;orthogonalLoop=1;jettySize=auto;html=1;exitX=1.017;exitY=0.656;exitDx=0;exitDy=0;entryX=0;entryY=0.5;entryDx=0;entryDy=0;strokeWidth=2;exitPerimeter=0;" edge="1" parent="1" source="qFRLE7N9h79QPN77nhn2-1" target="qFRLE7N9h79QPN77nhn2-2">
          <mxGeometry relative="1" as="geometry">
            <Array as="points">
              <mxPoint x="300" y="195" />
              <mxPoint x="300" y="200" />
              <mxPoint x="360" y="200" />
              <mxPoint x="360" y="90" />
            </Array>
          </mxGeometry>
        </mxCell>
        <mxCell id="qFRLE7N9h79QPN77nhn2-14" style="edgeStyle=orthogonalEdgeStyle;rounded=0;orthogonalLoop=1;jettySize=auto;html=1;strokeColor=#FF582E;strokeWidth=2;endSize=2;" edge="1" parent="1">
          <mxGeometry relative="1" as="geometry">
            <mxPoint x="310" y="240" as="sourcePoint" />
            <mxPoint x="545" y="210" as="targetPoint" />
            <Array as="points">
              <mxPoint x="300" y="240" />
              <mxPoint x="545" y="240" />
            </Array>
          </mxGeometry>
        </mxCell>
        <mxCell id="qFRLE7N9h79QPN77nhn2-17" style="edgeStyle=orthogonalEdgeStyle;rounded=0;orthogonalLoop=1;jettySize=auto;html=1;exitX=1;exitY=0.75;exitDx=0;exitDy=0;entryX=0;entryY=0.75;entryDx=0;entryDy=0;strokeWidth=2;" edge="1" parent="1">
          <mxGeometry relative="1" as="geometry">
            <mxPoint x="299" y="198" as="sourcePoint" />
            <mxPoint x="413" y="200" as="targetPoint" />
            <Array as="points">
              <mxPoint x="299" y="200" />
            </Array>
          </mxGeometry>
        </mxCell>
        <mxCell id="qFRLE7N9h79QPN77nhn2-18" style="edgeStyle=orthogonalEdgeStyle;rounded=0;orthogonalLoop=1;jettySize=auto;html=1;exitX=1;exitY=1;exitDx=0;exitDy=0;entryX=0.5;entryY=0;entryDx=0;entryDy=0;strokeColor=#FF582E;strokeWidth=2;endSize=2;" edge="1" parent="1" source="qFRLE7N9h79QPN77nhn2-1" target="qFRLE7N9h79QPN77nhn2-12">
          <mxGeometry relative="1" as="geometry">
            <mxPoint x="300" y="270" as="sourcePoint" />
            <mxPoint x="545" y="300" as="targetPoint" />
            <Array as="points">
              <mxPoint x="300" y="240" />
              <mxPoint x="545" y="240" />
            </Array>
          </mxGeometry>
        </mxCell>
        <mxCell id="qFRLE7N9h79QPN77nhn2-1" value="UTXO1 2BTC" style="rounded=0;whiteSpace=wrap;html=1;" vertex="1" parent="1">
          <mxGeometry x="180" y="90" width="120" height="160" as="geometry" />
        </mxCell>
        <mxCell id="qFRLE7N9h79QPN77nhn2-2" value="UTXO2&lt;br&gt;1BTC" style="rounded=0;whiteSpace=wrap;html=1;" vertex="1" parent="1">
          <mxGeometry x="414" y="60" width="120" height="60" as="geometry" />
        </mxCell>
        <mxCell id="qFRLE7N9h79QPN77nhn2-3" value="RGB Asset&lt;div&gt;100&lt;/div&gt;" style="shape=parallelogram;perimeter=parallelogramPerimeter;whiteSpace=wrap;html=1;fixedSize=1;fillColor=#f8cecc;strokeColor=#b85450;" vertex="1" parent="1">
          <mxGeometry x="185" y="210" width="110" height="40" as="geometry" />
        </mxCell>
        <mxCell id="qFRLE7N9h79QPN77nhn2-15" value="" style="group" vertex="1" connectable="0" parent="1">
          <mxGeometry x="414" y="150" width="186" height="60" as="geometry" />
        </mxCell>
        <mxCell id="qFRLE7N9h79QPN77nhn2-6" value="UTXO3&lt;br&gt;1BTC" style="rounded=0;whiteSpace=wrap;html=1;" vertex="1" parent="qFRLE7N9h79QPN77nhn2-15">
          <mxGeometry width="120" height="60" as="geometry" />
        </mxCell>
        <mxCell id="qFRLE7N9h79QPN77nhn2-11" value="RGB Asset&lt;div&gt;&lt;span style=&quot;background-color: initial;&quot;&gt;30&lt;/span&gt;&lt;/div&gt;" style="shape=parallelogram;perimeter=parallelogramPerimeter;whiteSpace=wrap;html=1;fixedSize=1;fillColor=#f8cecc;strokeColor=#b85450;" vertex="1" parent="qFRLE7N9h79QPN77nhn2-15">
          <mxGeometry x="76" y="20" width="110" height="40" as="geometry" />
        </mxCell>
        <mxCell id="qFRLE7N9h79QPN77nhn2-16" value="" style="group" vertex="1" connectable="0" parent="1">
          <mxGeometry x="414" y="260" width="186" height="60" as="geometry" />
        </mxCell>
        <mxCell id="qFRLE7N9h79QPN77nhn2-10" value="UTXO4" style="rounded=0;whiteSpace=wrap;html=1;" vertex="1" parent="qFRLE7N9h79QPN77nhn2-16">
          <mxGeometry width="120" height="60" as="geometry" />
        </mxCell>
        <mxCell id="qFRLE7N9h79QPN77nhn2-12" value="RGB Asset&lt;div&gt;&lt;span style=&quot;background-color: initial;&quot;&gt;70&lt;/span&gt;&lt;/div&gt;" style="shape=parallelogram;perimeter=parallelogramPerimeter;whiteSpace=wrap;html=1;fixedSize=1;fillColor=#f8cecc;strokeColor=#b85450;" vertex="1" parent="qFRLE7N9h79QPN77nhn2-16">
          <mxGeometry x="76" y="20" width="110" height="40" as="geometry" />
        </mxCell>
      </root>
    </mxGraphModel>
  </diagram>
</mxfile>
